<svg xmlns="http://www.w3.org/2000/svg" version="1.1" xmlns:xlink="http://www.w3.org/1999/xlink" xmlns:svgjs="http://svgjs.dev/svgjs" width="1000" height="297" viewBox="0 0 1000 297"><g transform="matrix(1,0,0,1,-0.6060606060606233,-0.15084666999632645)"><svg viewBox="0 0 396 118" data-background-color="#444444" preserveAspectRatio="xMidYMid meet" height="297" width="1000" xmlns="http://www.w3.org/2000/svg" xmlns:xlink="http://www.w3.org/1999/xlink"><g id="tight-bounds" transform="matrix(1,0,0,1,0.2400000000000091,0.05993234700190442)"><svg viewBox="0 0 395.52 117.88013530599618" height="117.88013530599618" width="395.52"><g><svg viewBox="0 0 395.52 117.88013530599618" height="117.88013530599618" width="395.52"><g><svg viewBox="0 0 589.7064316726846 175.75514248683317" height="117.88013530599618" width="395.52"><g transform="matrix(1,0,0,1,194.1864316726846,51.82023814812765)"><svg viewBox="0 0 395.52 72.11466619057786" height="72.11466619057786" width="395.52"><g id="textblocktransform"><svg viewBox="0 0 395.52 72.11466619057786" height="72.11466619057786" width="395.52" id="textblock"><g><svg viewBox="0 0 395.52 39.03677033212063" height="39.03677033212063" width="395.52"><g transform="matrix(1,0,0,1,0,0)"><svg width="395.52" viewBox="1.65 -37 426.02000000000004 42.05" height="39.03677033212063" data-palette-color="#ffffff"><path d="M4.75-1.7Q2.8-2.6 1.65-4.35L1.65-4.35Q2.6-5.55 3.95-5.55L3.95-5.55Q4.6-5.55 5.38-5.3 6.15-5.05 6.4-4.95L6.4-4.95Q7.85-4.45 9.45-4.45L9.45-4.45Q12-4.45 14.23-5.65 16.45-6.85 17.55-8.9L17.55-8.9Q20.4-14.2 20.4-21.3L20.4-21.3Q20.4-24.55 19.8-28.9L19.8-28.9Q18.4-28.85 17.32-28.4 16.25-27.95 14.55-26.95L14.55-26.95Q13.4-26.3 12.1-26.3L12.1-26.3Q11.3-26.3 10.65-26.5L10.65-26.5Q10.1-26.65 9.53-27.03 8.95-27.4 8.75-27.85L8.75-27.85Q8.6-28.15 8.6-28.5L8.6-28.5Q8.6-29 8.95-29.45 9.3-29.9 9.8-30.15L9.8-30.15Q13.55-31.95 16.9-33.2L16.9-33.2Q17.7-33.45 18.85-33.55L18.85-33.55Q19.9-33.65 20.4-33.8L20.4-33.8Q21.9-34.15 22.9-34.15L22.9-34.15Q24.95-34.15 26.6-32.7L26.6-32.7 26.6-29.85Q26.65-28.45 26.65-25.6L26.65-25.6 26.65-23.85 26.6-22.45Q26.5-18 26.15-14.93 25.8-11.85 24.65-8.9L24.65-8.9Q23.35-5.65 21.18-3.65 19-1.65 15.65-1L15.65-1Q13.05-0.45 10.75-0.45L10.75-0.45Q7.55-0.45 4.75-1.7L4.75-1.7ZM58.2-26.8Q58.5-24.65 58.8-20.55L58.8-20.55 58.9-17.95Q58.9-10.7 60.8-5L60.8-5Q61.05-4.2 61.05-2.95L61.05-2.95Q61.05-2.25 60.95-1.05L60.95-1.05Q60.9-0.25 60.35 0.23 59.8 0.7 58.95 0.7L58.95 0.7Q58.85 0.7 58.4 0.6L58.4 0.6Q57.15 0.3 56.5-0.53 55.85-1.35 55.85-2.55L55.85-2.55Q55.85-2.95 55.9-3.15L55.9-3.15Q55.9-3.45 55.9-4L55.9-4Q55.9-4.9 55.8-5.65L55.8-5.65Q55.4-7.6 54.55-10.85L54.55-10.85Q54.25-12.2 53.3-12.2L53.3-12.2Q52.95-12.2 52.5-12.05L52.5-12.05Q50.95-11.6 49.77-11.2 48.6-10.8 47.7-10.55L47.7-10.55 45.3-9.85Q43.25-9.25 41.5-8.9L41.5-8.9Q39.65-8.5 38.8-6.85L38.8-6.85Q38-5.35 36.5-2.8L36.5-2.8Q35.55-1.1 34-1.1L34-1.1Q33.25-1.1 32.52-1.48 31.8-1.85 31.3-2.45L31.3-2.45Q30.55-3.3 30.55-4.1L30.55-4.1Q30.55-4.65 30.85-5.25L30.85-5.25 34.3-12.25Q40-23.85 41.1-26.15L41.1-26.15Q44.25-32.25 49.65-34.55L49.65-34.55Q50.8-35.1 52-35.1L52-35.1Q53.5-35.1 54.77-34.33 56.05-33.55 56.75-32.15L56.75-32.15Q57.75-30.1 58.2-26.8L58.2-26.8ZM42.05-14.15Q48.9-15.35 53.7-16.1L53.7-16.1Q53.6-20.9 53.42-23.68 53.25-26.45 52.7-29.25L52.7-29.25Q50.05-28.95 48.7-26.65L48.7-26.65Q46.35-22.95 44.2-19L44.2-19Q43.85-18.35 42.9-16.1L42.9-16.1 42.05-14.15ZM72.7-24.65Q72.5-26.45 73.22-27.93 73.95-29.4 75.3-30.8L75.3-30.8 78.35-31.05Q79.05-31.15 79.2-31.15L79.2-31.15Q79.95-31.15 81.1-29.3L81.1-29.3Q81.2-29 81.3-28.58 81.4-28.15 81.6-27.9L81.6-27.9 87.4-19.85Q88.7-18.2 89.95-16.4L89.95-16.4 90.8-19.15Q92.4-24.4 93.72-27.68 95.05-30.95 97.2-33.9L97.2-33.9 99.59-33.55Q100.55-32.8 100.25-31.55L100.25-31.55Q99.8-29.75 99.3-28.85L99.3-28.85Q98.09-25.8 97.3-22.68 96.5-19.55 95.5-14.8L95.5-14.8Q95.35-14.15 95.1-12.85L95.1-12.85Q94.7-10.85 93.55-9.88 92.4-8.9 90.4-8.8L90.4-8.8Q88.4-8.7 86.95-10.45L86.95-10.45Q85.45-12.25 83.2-15.3L83.2-15.3 82.2-16.65Q80.85-18.45 78.1-21.95L78.1-21.95 77.65-19.8Q76.9-16.2 76.75-14.15L76.75-14.15 76.45-8.1Q76.4-7.1 76.35-5.58 76.3-4.05 76.15-2L76.15-2Q76.1-0.5 75.12 0.6 74.15 1.7 72.7 2.1L72.7 2.1Q71.95 2.3 70.87 1.73 69.8 1.15 69.6 0.4L69.6 0.4Q69.25-0.9 69.25-1.9L69.25-1.9Q69.25-2.8 69.5-3.5L69.5-3.5Q69.95-4.7 70.1-7.3L70.1-7.3Q70.2-8.9 70.35-9.7L70.35-9.7Q71-14.3 72.35-22.4L72.35-22.4Q72.4-22.8 72.57-23.48 72.75-24.15 72.7-24.65L72.7-24.65ZM103.44-33.95Q103.39-33.9 102.99-33.63 102.59-33.35 102.54-32.95L102.54-32.95Q102.09-28.9 101.74-23.8L101.74-23.8Q101.69-23.55 102.12-23.13 102.54-22.7 102.69-22.75L102.69-22.75Q102.89-22.85 103.49-23.15 104.09-23.45 104.47-23.75 104.84-24.05 104.99-24.4L104.99-24.4Q105.59-25.8 106.12-27.6 106.64-29.4 107.09-31.1L107.09-31.1Q107.14-31.3 107.14-31.7L107.14-31.7Q107.14-32.75 106.42-33.43 105.69-34.1 104.49-34.1L104.49-34.1Q103.99-34.1 103.44-33.95L103.44-33.95ZM129.69-35.6Q130.94-35.1 130.94-34.2L130.94-34.2Q130.94-33.3 129.69-31.9L129.69-31.9Q129.14-31.95 128.09-31.95L128.09-31.95Q125.79-31.95 123.69-31.33 121.59-30.7 119.34-29.4L119.34-29.4Q118.29-28.75 117.54-27.75L117.54-27.75Q116.99-27.15 116.99-26.35L116.99-26.35Q116.99-25 118.49-23.75L118.49-23.75Q119.94-22.25 123.24-18.3L123.24-18.3 124.39-17.1Q126.84-14.45 128.27-12.6 129.69-10.75 130.69-8.35L130.69-8.35Q131.09-7.3 131.09-6.45L131.09-6.45Q131.09-4.3 129.44-2.5L129.44-2.5Q127.54-0.4 125.04 0.58 122.54 1.55 119.39 1.8L119.39 1.8Q118.99 1.85 118.44 1.9 117.89 1.95 117.19 1.95L117.19 1.95Q116.74 1.95 115.84 1.85L115.84 1.85Q114.74 1.9 113.54 1.48 112.34 1.05 111.34 0.25L111.34 0.25Q109.44-1.35 109.44-3.3L109.44-3.3Q109.44-4.95 110.84-6.65L110.84-6.65Q111.54-6.55 111.67-6.23 111.79-5.9 111.72-5.5 111.64-5.1 111.64-4.85L111.64-4.85Q111.64-4.7 111.74-4.4L111.74-4.4Q113.69-3.5 116.39-3.5L116.39-3.5Q119.39-3.5 122.07-4.53 124.74-5.55 125.34-7.05L125.34-7.05Q125.69-8.05 123.64-10.58 121.59-13.1 119.04-15.5L119.04-15.5Q116.64-17.65 114.69-19.75L114.69-19.75Q113.59-20.95 112.97-22.53 112.34-24.1 112.34-25.8L112.34-25.8Q112.34-28.1 113.52-30.15 114.69-32.2 117.04-33.5L117.04-33.5Q121.54-36.05 126.24-36.05L126.24-36.05Q126.89-36.05 128.09-35.95L128.09-35.95Q129.19-35.85 129.69-35.6L129.69-35.6ZM169.64-23.25Q169.39-22.75 168.04-20.5L168.04-20.5Q169.29-19.75 169.79-19.55L169.79-19.55Q172.44-18.55 173.76-16.53 175.09-14.5 175.09-12.05L175.09-12.05Q175.09-9.65 173.84-7.3L173.84-7.3Q170.74-1.55 163.84 1.9L163.84 1.9Q162.14 2.75 160.49 2.75L160.49 2.75Q158.09 2.75 156.03 1.05L156.03 1.05Q155.24 0.4 154.14-0.4L154.14-0.4Q154.03-0.1 153.91 0.33 153.78 0.75 153.64 0.95L153.64 0.95Q153.03 1.85 152.14 1.85L152.14 1.85Q151.34 1.85 150.69 1.2L150.69 1.2Q148.89-0.45 148.89-2.55L148.89-2.55Q148.89-4.15 148.84-5.35 148.78-6.55 148.74-7.35L148.74-7.35Q148.69-8.35 148.64-9.85 148.59-11.35 148.59-13.35L148.59-13.35Q148.59-17.15 148.99-20.15L148.99-20.15Q149.53-24.55 151.09-28.4L151.09-28.4Q152.28-31.3 154.66-32.95 157.03-34.6 160.28-34.9L160.28-34.9Q161.78-35 162.59-35L162.59-35Q166.29-35 168.79-33.4L168.79-33.4Q170.09-32.6 170.81-31.3 171.54-30 171.54-28.5L171.54-28.5Q171.54-27.25 170.99-26L170.99-26 170.49-25Q170.14-24.2 169.64-23.25L169.64-23.25ZM165.69-27.4Q165.94-28.05 166.14-29.55L166.14-29.55 166.29-30.65Q164.78-31.3 163.44-31.3L163.44-31.3Q162.28-31.3 161.28-30.95L161.28-30.95Q159.14-30.25 157.71-28.83 156.28-27.4 155.46-25.7 154.64-24 153.84-21.5L153.84-21.5Q153.24-19.55 153.24-17.15L153.24-17.15Q153.24-15.85 153.44-13.35L153.44-13.35Q153.53-12.6 153.64-10.9L153.64-10.9Q153.69-9.55 154.19-5.35L154.19-5.35 154.39-3.7Q154.69-3.6 155.39-3.5L155.39-3.5Q156.34-3.4 156.84-3.1L156.84-3.1Q157.28-2.85 157.74-2.27 158.19-1.7 158.44-1.4L158.44-1.4Q161.44-2 163.56-3.85 165.69-5.7 167.74-8.65L167.74-8.65Q169.29-11.05 169.69-12.95L169.69-12.95Q169.84-13.7 169.84-14.3L169.84-14.3Q169.84-15.65 169.11-16.35 168.39-17.05 167.14-17.05L167.14-17.05Q166.39-17.05 165.74-16.85L165.74-16.85Q163.49-16.2 161.14-14L161.14-14Q159.94-12.95 158.74-12.95L158.74-12.95Q157.99-12.95 157.19-13.4L157.19-13.4Q156.24-13.95 155.59-14.6 154.94-15.25 154.49-16.3L154.49-16.3 155.64-17.1Q157.44-18.4 158.39-18.95L158.39-18.95Q163.24-21.55 165.69-27.4L165.69-27.4ZM183.08-25.15Q185.03-28.4 189.13-30.85L189.13-30.85Q192.38-32.8 196.68-32.8L196.68-32.8Q199.73-32.8 202.58-31.78 205.43-30.75 207.28-28.9L207.28-28.9Q207.93-28.25 208.68-27.65L208.68-27.65Q209.83-26.65 210.03-26.4L210.03-26.4Q212.53-23.75 212.53-20.55L212.53-20.55Q212.53-18.05 210.93-15.45L210.93-15.45Q208.83-12 206.58-9.4 204.33-6.8 201.53-4.95L201.53-4.95Q196.78-1.8 192.43-1.8L192.43-1.8Q191.13-1.8 189.83-2.1L189.83-2.1Q185.48-3.05 182.78-6.18 180.08-9.3 180.08-13.3L180.08-13.3Q180.08-16.35 181.78-19.4L181.78-19.4Q181.88-19.65 182.21-19.9 182.53-20.15 182.73-20.3L182.73-20.3 183.88-19.75 184.98-19.2Q186.53-18.35 187.01-17.8 187.48-17.25 187.48-16.25L187.48-16.25Q187.48-15.55 187.33-14.35L187.33-14.35Q187.28-13.9 187.28-13.05L187.28-13.05Q187.28-11.2 187.73-8.6L187.73-8.6Q187.83-7.85 188.36-7.45 188.88-7.05 189.68-7.05L189.68-7.05Q190.08-7.05 190.33-7.1L190.33-7.1Q192.68-7.55 194.36-8.15 196.03-8.75 197.38-9.95L197.38-9.95Q199.88-12.1 201.73-14.1 203.58-16.1 204.98-18.4L204.98-18.4Q205.93-20 205.93-21.5L205.93-21.5Q205.93-22.75 205.38-23.95 204.83-25.15 203.78-26.65L203.78-26.65Q202.03-29.05 199.23-29.05L199.23-29.05Q198.23-29.05 197.18-28.75L197.18-28.75Q196.83-28.65 193.98-27.7L193.98-27.7Q193.68-27.6 193.36-27.5 193.03-27.4 192.68-27.3L192.68-27.3 186.98-25.65Q185.88-25.3 183.58-24.7L183.58-24.7 183.08-25.15ZM229.73-18.6Q229.73-18.4 229.78-18.18 229.83-17.95 229.88-17.75L229.88-17.75Q230.28-17.7 231.08-17.7L231.08-17.7Q234.58-17.7 238.28-19.2L238.28-19.2Q239.33-19.6 240.03-19.6L240.03-19.6Q241.43-19.6 242.33-18.3L242.33-18.3Q242.78-17.6 242.78-17.1L242.78-17.1Q242.78-16.5 242.13-15.85L242.13-15.85Q240.13-14 237.88-13.75L237.88-13.75Q235.88-13.5 231.88-12.9L231.88-12.9 228.38-12.4Q227.58-10.65 227.58-9L227.58-9Q227.58-6.6 229.26-5.03 230.93-3.45 233.83-3.35L233.83-3.35Q236.78-3.3 241.38-3.75L241.38-3.75 242.13-3.8Q243.38-3.8 244.21-3.23 245.03-2.65 245.78-1.2L245.78-1.2Q245.23 0 244.23 0.43 243.23 0.85 241.63 1.05L241.63 1.05Q239.98 1.25 237.88 1.25L237.88 1.25Q233.33 1.25 229.68-0.2L229.68-0.2Q223.23-2.7 221.43-8.85L221.43-8.85Q221.18-9.7 221.18-10.68 221.18-11.65 221.18-11.85L221.18-11.85Q221.18-13.55 219.53-14.35L219.53-14.35Q218.18-15.1 217.46-15.8 216.73-16.5 216.53-17.9L216.53-17.9 222.18-18.25 224.73-25.6Q224.83-25.95 224.96-26.48 225.08-27 225.23-27.3L225.23-27.3Q225.68-28.3 225.68-28.95L225.68-28.95Q225.68-29.95 224.73-30.7L224.73-30.7Q224.38-30.95 224.16-31.63 223.93-32.3 223.73-32.7L223.73-32.7 224.83-33.05Q225.63-33.25 225.98-33.4L225.98-33.4Q226.18-33.5 226.83-33.77 227.48-34.05 227.58-34.4L227.58-34.4Q227.93-35.25 228.46-35.55 228.98-35.85 229.73-35.85L229.73-35.85Q230.23-35.85 231.23-35.75L231.23-35.75Q231.53-35.75 231.86-35.63 232.18-35.5 232.38-35.3L232.38-35.3Q233.53-34.1 234.93-33.7 236.33-33.3 238.23-33.3L238.23-33.3 240.38-33.3 244.58-33.3Q248.83-33.3 250.93-33.2L250.93-33.2Q252.03-33.15 253.73-32.25L253.73-32.25Q254.03-32.1 254.21-31.68 254.38-31.25 254.38-30.85L254.38-30.85Q254.38-30.65 254.03-30.38 253.68-30.1 253.38-30L253.38-30Q249.98-29.1 248.23-28.95L248.23-28.95Q245.53-28.7 240.13-28.3L240.13-28.3Q238.88-28.25 236.13-28.05L236.13-28.05Q235.93-28.05 235.43-28.18 234.93-28.3 234.68-28.3L234.68-28.3Q232.83-28.3 232.33-26.75L232.33-26.75Q230.98-22.75 229.78-18.8L229.78-18.8 229.73-18.6ZM284.63-4.8Q284.78-4.3 284.78-3.85L284.78-3.85Q284.78-3.05 284.3-2.58 283.83-2.1 283.03-2.1L283.03-2.1Q282.73-2.1 282.53-2.15L282.53-2.15Q280.28-2.65 278.98-3.25L278.98-3.25Q277.98-3.7 275.28-5.5L275.28-5.5Q273.23-6.85 271.88-7.6L271.88-7.6Q270.13-8.55 268.13-8.9L268.13-8.9Q267.23-9.05 263.88-9.4L263.88-9.4Q262.38-9.5 261.68-9.6L261.68-9.6 260.78-2.2 260.83-1.4Q260.83 0.4 260.4 1 259.98 1.6 258.68 1.6L258.68 1.6Q257.33 1.6 256.33 0.75 255.33-0.1 255.33-1.35L255.33-1.35Q255.33-5.15 255.73-8.1L255.73-8.1Q257.13-17.15 262.18-26.9L262.18-26.9Q265.03-32.35 270.93-35.3L270.93-35.3Q272.83-36.25 274.78-36.25L274.78-36.25Q276.78-36.25 278.5-35.23 280.23-34.2 281.38-32.25L281.38-32.25Q282.43-30.5 282.43-28.85L282.43-28.85Q282.43-26.55 280.63-24.2L280.63-24.2Q278.48-21.4 274.53-16.25L274.53-16.25 271.28-12.05Q271.33-12.05 271.4-11.93 271.48-11.8 271.58-11.7L271.58-11.7 272.68-11.1Q276.83-8.85 278.78-7.55L278.78-7.55Q280.68-6.4 282.83-6.4L282.83-6.4Q283.48-6.4 283.83-6.45L283.83-6.45Q283.98-6.2 284.23-5.7 284.48-5.2 284.63-4.8L284.63-4.8ZM266.13-14.7Q268.18-17 270.25-19.5 272.33-22 273.93-24.2L273.93-24.2Q274.58-25.1 275.03-26.13 275.48-27.15 275.85-28.2 276.23-29.25 276.38-29.7L276.38-29.7Q276.43-29.85 276.43-30.2L276.43-30.2Q276.43-30.6 276.33-31.2 276.23-31.8 276.18-32.05L276.18-32.05Q272.53-30.95 269.53-27.55 266.53-24.15 264.8-20 263.08-15.85 263.03-12.85L263.03-12.85Q264.03-12.75 264.6-13.2 265.18-13.65 266.13-14.7L266.13-14.7ZM295.38-31.65Q295.43-31.6 294.13-32.75L294.13-32.75Q293.23-33.55 292.78-33.9L292.78-33.9Q292.98-35.25 293.78-35.8 294.58-36.35 295.88-36.65L295.88-36.65Q297.23-37 298.78-37L298.78-37Q300.28-37 301.83-36.7L301.83-36.7Q306.28-35.9 309.68-34.85 313.08-33.8 316.03-31.9L316.03-31.9Q318.08-30.65 319.48-28.95L319.48-28.95Q321.53-26.3 321.53-23.55L321.53-23.55Q321.53-21.2 319.98-18.7L319.98-18.7Q314.08-9.35 307.83-3.95L307.83-3.95Q304.03-0.6 299.43 1.55L299.43 1.55Q297.73 2.4 295.88 2.4L295.88 2.4Q293.68 2.4 291.63 1.15L291.63 1.15Q290.88 0.65 290.48 0.13 290.08-0.4 290.08-1.1L290.08-1.1 290.13-1.55 290.48-4.15Q291.08-8.75 291.58-11L291.58-11 291.83-12.1Q293.33-18.6 294.08-22.58 294.83-26.55 295.18-30.75L295.18-30.75 295.38-31.65ZM301.98-32.25Q301.38-32.3 300.38-32.15L300.38-32.15 299.28-32Q300.48-31 301.03-30.25 301.58-29.5 301.58-28.65L301.58-28.65Q301.58-28.45 301.48-27.95L301.48-27.95Q300.83-25.05 299.73-20.8L299.73-20.8 297.93-13.6Q296.73-8.7 295.83-4.5L295.83-4.5Q295.68-3.95 295.65-3.28 295.63-2.6 295.63-2.3L295.63-2.3Q296.08-2.1 296.13-2.1L296.13-2.1 296.78-2.35Q304.28-6 309.58-12.55L309.58-12.55Q311.73-15.3 313.2-17.75 314.68-20.2 315.43-22.9L315.43-22.9Q315.63-23.55 315.63-24.45L315.63-24.45Q315.63-26 314.85-27.25 314.08-28.5 312.73-29.15L312.73-29.15Q307.73-31.4 301.98-32.25L301.98-32.25ZM339.72-18.6Q339.72-18.4 339.77-18.18 339.82-17.95 339.87-17.75L339.87-17.75Q340.27-17.7 341.07-17.7L341.07-17.7Q344.57-17.7 348.27-19.2L348.27-19.2Q349.32-19.6 350.02-19.6L350.02-19.6Q351.42-19.6 352.32-18.3L352.32-18.3Q352.77-17.6 352.77-17.1L352.77-17.1Q352.77-16.5 352.12-15.85L352.12-15.85Q350.12-14 347.87-13.75L347.87-13.75Q345.87-13.5 341.87-12.9L341.87-12.9 338.37-12.4Q337.57-10.65 337.57-9L337.57-9Q337.57-6.6 339.25-5.03 340.92-3.45 343.82-3.35L343.82-3.35Q346.77-3.3 351.37-3.75L351.37-3.75 352.12-3.8Q353.37-3.8 354.2-3.23 355.02-2.65 355.77-1.2L355.77-1.2Q355.22 0 354.22 0.43 353.22 0.85 351.62 1.05L351.62 1.05Q349.97 1.25 347.87 1.25L347.87 1.25Q343.32 1.25 339.67-0.2L339.67-0.2Q333.22-2.7 331.42-8.85L331.42-8.85Q331.17-9.7 331.17-10.68 331.17-11.65 331.17-11.85L331.17-11.85Q331.17-13.55 329.52-14.35L329.52-14.35Q328.17-15.1 327.45-15.8 326.72-16.5 326.52-17.9L326.52-17.9 332.17-18.25 334.72-25.6Q334.82-25.95 334.95-26.48 335.07-27 335.22-27.3L335.22-27.3Q335.67-28.3 335.67-28.95L335.67-28.95Q335.67-29.95 334.72-30.7L334.72-30.7Q334.37-30.95 334.15-31.63 333.92-32.3 333.72-32.7L333.72-32.7 334.82-33.05Q335.62-33.25 335.97-33.4L335.97-33.4Q336.17-33.5 336.82-33.77 337.47-34.05 337.57-34.4L337.57-34.4Q337.92-35.25 338.45-35.55 338.97-35.85 339.72-35.85L339.72-35.85Q340.22-35.85 341.22-35.75L341.22-35.75Q341.52-35.75 341.85-35.63 342.17-35.5 342.37-35.3L342.37-35.3Q343.52-34.1 344.92-33.7 346.32-33.3 348.22-33.3L348.22-33.3 350.37-33.3 354.57-33.3Q358.82-33.3 360.92-33.2L360.92-33.2Q362.02-33.15 363.72-32.25L363.72-32.25Q364.02-32.1 364.2-31.68 364.37-31.25 364.37-30.85L364.37-30.85Q364.37-30.65 364.02-30.38 363.67-30.1 363.37-30L363.37-30Q359.97-29.1 358.22-28.95L358.22-28.95Q355.52-28.7 350.12-28.3L350.12-28.3Q348.87-28.25 346.12-28.05L346.12-28.05Q345.92-28.05 345.42-28.18 344.92-28.3 344.67-28.3L344.67-28.3Q342.82-28.3 342.32-26.75L342.32-26.75Q340.97-22.75 339.77-18.8L339.77-18.8 339.72-18.6ZM394.62-4.8Q394.77-4.3 394.77-3.85L394.77-3.85Q394.77-3.05 394.3-2.58 393.82-2.1 393.02-2.1L393.02-2.1Q392.72-2.1 392.52-2.15L392.52-2.15Q390.27-2.65 388.97-3.25L388.97-3.25Q387.97-3.7 385.27-5.5L385.27-5.5Q383.22-6.85 381.87-7.6L381.87-7.6Q380.12-8.55 378.12-8.9L378.12-8.9Q377.22-9.05 373.87-9.4L373.87-9.4Q372.37-9.5 371.67-9.6L371.67-9.6 370.77-2.2 370.82-1.4Q370.82 0.4 370.4 1 369.97 1.6 368.67 1.6L368.67 1.6Q367.32 1.6 366.32 0.75 365.32-0.1 365.32-1.35L365.32-1.35Q365.32-5.15 365.72-8.1L365.72-8.1Q367.12-17.15 372.17-26.9L372.17-26.9Q375.02-32.35 380.92-35.3L380.92-35.3Q382.82-36.25 384.77-36.25L384.77-36.25Q386.77-36.25 388.5-35.23 390.22-34.2 391.37-32.25L391.37-32.25Q392.42-30.5 392.42-28.85L392.42-28.85Q392.42-26.55 390.62-24.2L390.62-24.2Q388.47-21.4 384.52-16.25L384.52-16.25 381.27-12.05Q381.32-12.05 381.4-11.93 381.47-11.8 381.57-11.7L381.57-11.7 382.67-11.1Q386.82-8.85 388.77-7.55L388.77-7.55Q390.67-6.4 392.82-6.4L392.82-6.4Q393.47-6.4 393.82-6.45L393.82-6.45Q393.97-6.2 394.22-5.7 394.47-5.2 394.62-4.8L394.62-4.8ZM376.12-14.7Q378.17-17 380.25-19.5 382.32-22 383.92-24.2L383.92-24.2Q384.57-25.1 385.02-26.13 385.47-27.15 385.85-28.2 386.22-29.25 386.37-29.7L386.37-29.7Q386.42-29.85 386.42-30.2L386.42-30.2Q386.42-30.6 386.32-31.2 386.22-31.8 386.17-32.05L386.17-32.05Q382.52-30.95 379.52-27.55 376.52-24.15 374.8-20 373.07-15.85 373.02-12.85L373.02-12.85Q374.02-12.75 374.6-13.2 375.17-13.65 376.12-14.7L376.12-14.7ZM401.42-23.65Q400.62-25.75 400.34-26.65 400.07-27.55 400.07-28.45L400.07-28.45Q400.07-29.1 400.24-30.15 400.42-31.2 400.72-32.5L400.72-32.5 401.67-32.55Q402.02-32.55 402.27-32.4L402.27-32.4 403.12-31.75Q404.62-30.5 405.37-29.65 406.12-28.8 406.42-27.3L406.42-27.3Q407.07-24.25 407.94-21.9 408.82-19.55 410.47-17.65L410.47-17.65Q411.67-16.25 412.59-15.58 413.52-14.9 415.07-14.95L415.07-14.95Q415.82-16.45 416.17-17.25L416.17-17.25 417.52-20.55Q421.22-29.55 422.17-31.7L422.17-31.7Q422.57-32.65 423.62-34.1L423.62-34.1Q423.87-34.4 424.27-35L424.27-35Q425.92-34.35 426.79-33.08 427.67-31.8 427.67-30.15L427.67-30.15Q427.67-29.05 427.32-28.05L427.32-28.05Q426.47-25.6 424.52-21.55L424.52-21.55Q424.17-20.8 423.84-20.2 423.52-19.6 423.27-19.1L423.27-19.1Q422.17-17 421.97-16.6L421.97-16.6 420.62-13.6Q419.07-9.9 417.77-7.75L417.77-7.75 417.07-6.65Q414.57-2.55 412.69 0.08 410.82 2.7 408.22 5.05L408.22 5.05Q408.12 4.7 407.89 4.23 407.67 3.75 407.72 3.55L407.72 3.55Q409.32-0.5 412.62-8.6L412.62-8.6Q412.87-9.25 413.57-11.4L413.57-11.4Q404.52-15.2 401.42-23.65L401.42-23.65Z" opacity="1" transform="matrix(1,0,0,1,0,0)" fill="#ffffff" class="wordmark-text-0" data-fill-palette-color="primary" id="text-0"></path></svg></g></svg></g><g transform="matrix(1,0,0,1,0,48.252414925046345)"><svg viewBox="0 0 375.74399999999997 23.86225126553152" height="23.86225126553152" width="375.74399999999997"><g transform="matrix(1,0,0,1,0,0)"><svg width="375.74399999999997" viewBox="1.5 -38.5 760.47 48.3" height="23.86225126553152" data-palette-color="#00d1cd"><path d="M26.25-35L24.6-27.75 22.65-27.75 21.8-31 9.6-31.4 10-20.05 22.15-19.65 22.15-17.65 9.6-16 10.8-2.55 10.8-2.55 14.9-2.2 15.7 0.25 3.5 0.25 3.15-1.35 5.9-1.75 5.15-31.8 1.85-33.05 1.5-34.65 9.6-34.65 9.6-34.65 26.25-35ZM42.05-24.8L45.6-20.6 42.55-18 39.9-21.85 35.85-20.5 34.65-17.85 34.85-2.85 37.8-1.9 37.5-0.15 28.65-0.15 28.5-1.5 30.85-2.45 30.8-22.45 28.35-23.85 30.5-26.6 34.15-24.25 34.45-22.55 37-23.55 42.05-24.8ZM53.34-13.2L53.39-13.4 65.09-15.25 63.7-21.8 60.34-23.05 53.8-20.85 53.34-13.2ZM56.49-25.7L63.55-25.15 67.55-21.65 69-13.05 53.34-10.55 56.05-2.6 61.95-2.75 68.94-4.85 69.34-0.9 55.24 1.1 49.09-8 49.8-20.85 56.49-25.7ZM75.99-24.7L84.24-26.1 89.84-23.8 91.84-25.75 93.99-24.25 90.19-19.15 88.39-20.85 80.19-22.8 77.54-19.7 80.99-14.85 91.04-12.35 92.44-3.85 85.84 0.25 77.04-1.75 75.84 0.3 73.34-0.15 75.04-5.4 85.24-3 88.39-5.35 87.19-9.55 76.49-13.2 73.59-19.15 75.99-24.7ZM121.64-7L124.34-4.65 118.49 1.35 114.29-0.5 113.74-17.95 110.29-21.8 103.19-15.25 103.19-2.3 106.84-1.2 107.14 0.25 97.39 0.3 97.09-1.2 98.99-1.95 99.74-31.55 96.49-34.4 100.24-36.95 103.49-31.8 102.94-18.6 108.19-25.7 114.79-23.75 117.84-18.1 117.14-2.2 118.19-1.5 121.64-7ZM150.84-32.9L148.39-29.65 148.34-24.35 155.19-25.3 155.49-22.65 148.39-21.9 149.19-2.6 152.09-2.55 152.89-0.15 143.03-0.3 142.78-1.95 145.19-2.3 144.74-19.1 144.78-21.05 141.34-21.5 141.49-23.3 144.49-24.25 144.53-30.7 149.49-36.05 157.53-34.75 156.69-32 150.84-32.9ZM173.73-24.8L177.28-20.6 174.23-18 171.58-21.85 167.53-20.5 166.33-17.85 166.53-2.85 169.48-1.9 169.18-0.15 160.33-0.15 160.18-1.5 162.53-2.45 162.48-22.45 160.03-23.85 162.18-26.6 165.83-24.25 166.13-22.55 168.68-23.55 173.73-24.8ZM192.73-22.55L187.63-22.95 183.23-17.25 184.18-7.4 189.73-2.15 193.48-2.2 198.18-11.4 196.08-20.05 192.73-22.55ZM186.03-26.3L194.43-26.3 199.73-21.4 201.73-9.95 194.68 1.1 187.68 1.4 180.33-7.45 179.78-18.85 186.03-26.3ZM246.58-8.45L248.78-5.8 242.53 0 238.43-0.75 237.98-20.7 234.93-22.6 227.73-17.55 228.13-15.5 228.63-2.75 231.13-1.55 230.88-0.35 221.73-0.1 221.93-1.4 224.43-2.6 224.13-19.5 222.08-22.7 217.58-20.55 212.73-15.75 213.18-2.7 216.33-1.65 216.08 0.15 206.58 0.05 206.43-1.35 208.68-2.25 209.03-21.9 205.23-24.45 207.43-28.15 211.68-24.75 211.98-19.65 218.53-24.85 226.23-24.6 227.13-19.9 235.08-24.85 240.33-23.95 242.18-19.9 241.43-3.5 242.78-3.4 246.58-8.45ZM280.97-4.3L280.97-1.55 272.77 0 268.87-3.85 268.87-9 268.87-21.9 266.47-21.5 264.52-21.05 264.17-23.45 267.72-24.6 268.42-24.6 268.42-29.3 267.72-30.9 271.97-30.9 272.37-26.55 272.37-24.95 279.37-25.8 279.37-21.9 272.37-22.25 272.37-5.8 274.72-3.15 280.97-4.3ZM309.67-7L312.37-4.65 306.52 1.35 302.32-0.5 301.77-17.95 298.32-21.8 291.22-15.25 291.22-2.3 294.87-1.2 295.17 0.25 285.42 0.3 285.12-1.2 287.02-1.95 287.77-31.55 284.52-34.4 288.27-36.95 291.52-31.8 290.97-18.6 296.22-25.7 302.82-23.75 305.87-18.1 305.17-2.2 306.22-1.5 309.67-7ZM318.12-13.2L318.17-13.4 329.87-15.25 328.47-21.8 325.12-23.05 318.57-20.85 318.12-13.2ZM321.27-25.7L328.32-25.15 332.32-21.65 333.77-13.05 318.12-10.55 320.82-2.6 326.72-2.75 333.72-4.85 334.12-0.9 320.02 1.1 313.87-8 314.57-20.85 321.27-25.7ZM364.11-32.9L361.66-29.65 361.61-24.35 368.46-25.3 368.76-22.65 361.66-21.9 362.46-2.6 365.36-2.55 366.16-0.15 356.31-0.3 356.06-1.95 358.46-2.3 358.01-19.1 358.06-21.05 354.61-21.5 354.76-23.3 357.76-24.25 357.81-30.7 362.76-36.05 370.81-34.75 369.96-32 364.11-32.9ZM385.91-13.1L381.66-12.95 376.06-9.2 375.91-3.6 377.91-2.55Q378.91-2.6 379.76-2.65L379.76-2.65Q380.46-2.7 381.04-2.78 381.61-2.85 381.61-2.95L381.61-2.95Q381.61-2.95 381.81-3.25 382.01-3.55 382.34-4.03 382.66-4.5 383.06-5.08 383.46-5.65 383.91-6.25L383.91-6.25Q384.91-7.65 386.26-9.45L386.26-9.45 385.91-13.1ZM373.21-22.8L378.46-26.45 389.76-23.8 389.96-3.25 394.21-2.95 394.26-0.65 388.06-0.05 385.96-4.45 383.36-0.35 374.91 1.25 371.81-2.5 372.01-10.1 380.56-15.65 385.86-16.35 386.26-21.8 377.91-22.9 375.46-18.65 372.71-21.55 373.21-22.8ZM411.46-24.8L415.01-20.6 411.96-18 409.31-21.85 405.26-20.5 404.06-17.85 404.26-2.85 407.21-1.9 406.91-0.15 398.06-0.15 397.91-1.5 400.26-2.45 400.21-22.45 397.76-23.85 399.91-26.6 403.56-24.25 403.86-22.55 406.41-23.55 411.46-24.8ZM459.36-8.45L461.56-5.8 455.31 0 451.21-0.75 450.76-20.7 447.71-22.6 440.51-17.55 440.91-15.5 441.41-2.75 443.91-1.55 443.66-0.35 434.51-0.1 434.71-1.4 437.21-2.6 436.91-19.5 434.86-22.7 430.36-20.55 425.51-15.75 425.96-2.7 429.11-1.65 428.86 0.15 419.36 0.05 419.21-1.35 421.46-2.25 421.81-21.9 418.01-24.45 420.21-28.15 424.46-24.75 424.76-19.65 431.31-24.85 439.01-24.6 439.91-19.9 447.86-24.85 453.11-23.95 454.96-19.9 454.21-3.5 455.56-3.4 459.36-8.45ZM493.75-4.3L493.75-1.55 485.55 0 481.65-3.85 481.65-9 481.65-21.9 479.25-21.5 477.3-21.05 476.95-23.45 480.5-24.6 481.2-24.6 481.2-29.3 480.5-30.9 484.75-30.9 485.15-26.55 485.15-24.95 492.15-25.8 492.15-21.9 485.15-22.25 485.15-5.8 487.5-3.15 493.75-4.3ZM509.25-22.55L504.15-22.95 499.75-17.25 500.7-7.4 506.25-2.15 510-2.2 514.7-11.4 512.6-20.05 509.25-22.55ZM502.55-26.3L510.95-26.3 516.25-21.4 518.25-9.95 511.2 1.1 504.2 1.4 496.85-7.45 496.3-18.85 502.55-26.3ZM561.19-24.2L558.44-23.2 547.84 7.35 542.09 9.8 535.84 6.55 537.19 3.25 542.44 6.55 545.19 5.8 546.64 1.7 547.94-2.7 545.34-1.3 538.59-22.2 536.34-22.4 535.74-24.5 542.29-25.1 544.54-14.75 548.34-3.8 554.54-23.4 552.24-24.1 552.29-25.4 560.89-25.45 561.19-24.2ZM575.64-22.55L570.54-22.95 566.14-17.25 567.09-7.4 572.64-2.15 576.39-2.2 581.09-11.4 578.99-20.05 575.64-22.55ZM568.94-26.3L577.34-26.3 582.64-21.4 584.64-9.95 577.59 1.1 570.59 1.4 563.24-7.45 562.69-18.85 568.94-26.3ZM614.94-6.5L617.14-2.7 609.79 0.8 606.99 0.05 606.09-2.85 605.44-6.3 596.59 0.75 591.39-1.05 589.89-6.95 589.74-22.35 587.64-23.25 587.79-24.45 596.74-24.65 596.49-22.85 593.89-21.8 593.89-7.7 595.74-3.25 598.99-5.05 605.04-8.4 605.84-22.3 603.64-23.3 603.79-24.65 611.69-24.65 611.94-22.95 609.34-21.95 609.19-3.4 609.94-2.15 614.94-6.5ZM632.33-24.8L635.88-20.6 632.83-18 630.18-21.85 626.13-20.5 624.93-17.85 625.13-2.85 628.08-1.9 627.78-0.15 618.93-0.15 618.78-1.5 621.13-2.45 621.08-22.45 618.63-23.85 620.78-26.6 624.43-24.25 624.73-22.55 627.28-23.55 632.33-24.8ZM670.58-4.3L670.58-1.55 662.38 0 658.48-3.85 658.48-9 658.48-21.9 656.08-21.5 654.13-21.05 653.78-23.45 657.33-24.6 658.03-24.6 658.03-29.3 657.33-30.9 661.58-30.9 661.98-26.55 661.98-24.95 668.98-25.8 668.98-21.9 661.98-22.25 661.98-5.8 664.33-3.15 670.58-4.3ZM688.23-13.1L683.98-12.95 678.38-9.2 678.23-3.6 680.23-2.55Q681.23-2.6 682.08-2.65L682.08-2.65Q682.78-2.7 683.35-2.78 683.93-2.85 683.93-2.95L683.93-2.95Q683.93-2.95 684.13-3.25 684.33-3.55 684.65-4.03 684.98-4.5 685.38-5.08 685.78-5.65 686.23-6.25L686.23-6.25Q687.23-7.65 688.58-9.45L688.58-9.45 688.23-13.1ZM675.53-22.8L680.78-26.45 692.08-23.8 692.28-3.25 696.53-2.95 696.58-0.65 690.38-0.05 688.28-4.45 685.68-0.35 677.23 1.25 674.13-2.5 674.33-10.1 682.88-15.65 688.18-16.35 688.58-21.8 680.23-22.9 677.78-18.65 675.03-21.55 675.53-22.8ZM712.32-21.25L706.42-19.2 706.22-4.55 712.77-3 718.57-10.8 717.22-19.65 712.32-21.25ZM699.07-35.6L702.97-38.5 705.02-34.35 706.22-22.65 712.82-24.45 720.37-21.6 723.02-10.5 716.27-0.4 704.87-0.85 702.07-3.25 701.82-32.1 699.07-35.6ZM737.47-1.95L737.72-0.05 727.17-0.25 727.02-1.55 730.62-2.6 730.62-32.6 727.97-32.05 728.17-35.35 734.52-35.5 734.07-2.65 737.47-1.95ZM745.97-13.2L746.02-13.4 757.72-15.25 756.32-21.8 752.97-23.05 746.42-20.85 745.97-13.2ZM749.12-25.7L756.17-25.15 760.17-21.65 761.62-13.05 745.97-10.55 748.67-2.6 754.57-2.75 761.57-4.85 761.97-0.9 747.87 1.1 741.72-8 742.42-20.85 749.12-25.7Z" opacity="1" transform="matrix(1,0,0,1,0,0)" fill="#00d1cd" class="slogan-text-1" data-fill-palette-color="secondary" id="text-1"></path></svg></g></svg></g></svg></g></svg></g><g><svg viewBox="0 0 175.75514248683317 175.75514248683317" height="175.75514248683317" width="175.75514248683317"><g><svg></svg></g><g id="icon-0"><svg viewBox="0 0 175.75514248683317 175.75514248683317" height="175.75514248683317" width="175.75514248683317"><g><path d="M0 87.878c0-48.533 39.344-87.878 87.878-87.878 48.533 0 87.878 39.344 87.877 87.878 0 48.533-39.344 87.878-87.877 87.877-48.533 0-87.878-39.344-87.878-87.877zM87.878 172.235c46.589 0 84.357-37.768 84.357-84.357 0-46.589-37.768-84.357-84.357-84.358-46.589 0-84.357 37.768-84.358 84.358 0 46.589 37.768 84.357 84.358 84.357z" data-fill-palette-color="accent" fill="#00d1cd" stroke="transparent"></path></g><g transform="matrix(1,0,0,1,45.34530052879008,36.86998022026652)"><svg viewBox="0 0 85.06454142925301 102.01518204630013" height="102.01518204630013" width="85.06454142925301"><g><svg xmlns="http://www.w3.org/2000/svg" data-name="Layer 1" viewBox="10.600348846797992 0.49655623238792646 105.61446120988896 126.66004313923848" x="0" y="0" height="102.01518204630013" width="85.06454142925301" class="icon-z$-0" data-fill-palette-color="accent" id="z$-0"><path d="M102.57 14.45a17.19 17.19 0 0 0 1.37-3.19 18.17 18.17 0 0 0 0.58-2.61c0.05-0.44 0.13-0.88 0.16-1.32a10.17 10.17 0 0 0 0-1.32 7 7 0 0 0-2.56-4.9 2.76 2.76 0 0 0-3.74 0.25l-0.23 0.24a8.47 8.47 0 0 0-1.48 2.17A8.35 8.35 0 0 0 96 5.7c-0.21 1.24-0.25 2.45-0.39 3.67q-0.14 1.12-0.3 2.25c-8.16-1-17.54 7.13-24.86 14.44a21.78 21.78 0 0 0-6.22 12.47 10.86 10.86 0 0 1-6.64 8.31A22 22 0 0 0 45.93 58.45a10.85 10.85 0 0 1-8.31 6.64 21.79 21.79 0 0 0-12.47 6.22c-5.8 5.8-21.21 21.21-11.31 31.11 4.43 4.43 13 6.42 21.27 6.42a48.61 48.61 0 0 0 7.59-0.59c-1.48 7.16-0.93 14.38 5.95 17.49a18.67 18.67 0 0 0 7.63 1.41c11.88 0 28.06-7.53 32.07-16.37a21.85 21.85 0 0 0 1.82-6.61A15.29 15.29 0 0 1 97 92.76a22 22 0 0 0 9.93-21.94A15.29 15.29 0 0 1 111 58.2a21.84 21.84 0 0 0 3.77-5.73c2.35-5.2 1.81-13.47-1.45-22.12C110.62 23.25 106.74 17.56 102.57 14.45ZM73.26 114.81a2 2 0 0 1-1.41-3.74A10 10 0 1 0 59 105.24a2 2 0 1 1-3.74 1.41 14 14 0 1 1 18 8.16ZM79.38 87a14 14 0 0 1-7-18.53A2 2 0 0 1 76 70.08a10 10 0 1 0 18.22 8.25A9.9 9.9 0 0 0 94.91 72a2 2 0 1 1 3.9-0.89A14 14 0 0 1 79.38 87ZM94.69 57.41A14 14 0 0 1 89.76 30.3 2 2 0 0 1 91.17 34a10 10 0 1 0 7.06 18.71 2 2 0 0 1 1.41 3.74A14 14 0 0 1 94.69 57.41Zm-24.75 0.9a22 22 0 0 0-6.77 15 11.56 11.56 0 0 1-0.58 3.13A10 10 0 1 1 70.28 58C70.17 58.07 70.07 58.2 69.95 58.31ZM50.52 88.8a22.13 22.13 0 0 0-2.25 3.85h0l-0.65 1.45a10 10 0 1 1 2.9-5.29ZM16.67 99.6C11.85 94.77 15.44 86.69 28 74.14a17.82 17.82 0 0 1 10.2-5.09 14.87 14.87 0 0 0 11.43-9 18 18 0 0 1 9.5-9.5 14.88 14.88 0 0 0 9-11.43 17.82 17.82 0 0 1 5.09-10.2 92 92 0 0 1 8.47-7.65 83.7 83.7 0 0 0-7.05 13.1 21.79 21.79 0 0 0-1.42 13.86 10.33 10.33 0 0 1-0.69 6.42A14 14 0 1 0 60.69 79.95a10 10 0 0 1-2.94 2.48 22.09 22.09 0 0 0-3.22 2.15 14 14 0 1 0-9.41 15.57c-0.46 1.23-0.9 2.52-1.3 3.84C33.56 106.16 21.3 104.23 16.67 99.6Z" fill="#00d1cd" data-fill-palette-color="accent"></path></svg></g></svg></g></svg></g></svg></g></svg></g></svg></g><defs></defs></svg><rect width="395.52" height="117.88013530599618" fill="none" stroke="none" visibility="hidden"></rect></g></svg></g></svg>