<svg xmlns="http://www.w3.org/2000/svg" version="1.1" xmlns:xlink="http://www.w3.org/1999/xlink" xmlns:svgjs="http://svgjs.dev/svgjs" width="2000" height="510" viewBox="0 0 2000 510"><g transform="matrix(1,0,0,1,-1.2121212121212466,-0.7932112390399766)"><svg viewBox="0 0 396 101" data-background-color="#001f3f" preserveAspectRatio="xMidYMid meet" height="510" width="2000" xmlns="http://www.w3.org/2000/svg" xmlns:xlink="http://www.w3.org/1999/xlink"><g id="tight-bounds" transform="matrix(1,0,0,1,0.2400000000000091,0.15708697949824568)"><svg viewBox="0 0 395.52 100.68582556337351" height="100.68582556337351" width="395.52"><g><svg viewBox="0 0 397.4975999999999 101.18925469119037" height="100.68582556337351" width="395.52"><g><rect width="397.4975999999999" height="3.0992932240290094" x="0" y="55.60916604684634" fill="#ffa458" opacity="1" stroke-width="0" stroke="transparent" fill-opacity="1" class="rect-o-0" data-fill-palette-color="primary" rx="1%" id="o-0" data-palette-color="#ffa458"></rect></g><g transform="matrix(1,0,0,1,0.9887999999999693,66.82179231807172)"><svg viewBox="0 0 395.52 34.367462373118656" height="34.367462373118656" width="395.52"><g id="textblocktransform"><svg viewBox="0 0 395.52 34.367462373118656" height="34.367462373118656" width="395.52" id="textblock"><g><svg viewBox="0 0 395.52 34.367462373118656" height="34.367462373118656" width="395.52"><g transform="matrix(1,0,0,1,0,0)"><svg width="395.52" viewBox="4.849999904632568 -36.349998474121094 569.3099975585938 49.64999771118164" height="34.367462373118656" data-palette-color="#ffa458"><g class="wordmark-text-0" data-fill-palette-color="primary" id="text-0"><path d="M18.2-34.55Q22.85-34.25 26.48-31.95 30.1-29.65 32.1-25.78 34.1-21.9 34.1-17.1L34.1-17.1Q34.1-12 31.88-8 29.65-4 25.7-1.75 21.75 0.5 16.7 0.5L16.7 0.5 14.2 0.5Q13.8 0.5 12.45 0.5 11.1 0.5 7.65 0.2L7.65 0.2 4.85-0.05 4.85-34.6 18.2-34.55ZM15.1-3.25Q22.3-3.25 26.15-6.8 30-10.35 30-16.95L30-16.95Q30-23.15 26.73-26.8 23.45-30.45 17.65-30.75L17.65-30.75 8.95-30.75 8.95-3.5Q12.35-3.25 15.1-3.25L15.1-3.25ZM49.05 0.4Q44.8 0.4 42.4-1.83 40-4.05 40-8.05L40-8.05 40-24.95 44.1-24.95 44.15-8.55Q44.15-6.05 45.32-4.67 46.5-3.3 49.2-3.3L49.2-3.3Q51.45-3.3 53.02-4.42 54.6-5.55 56.35-8L56.35-8 56.35-25 60.45-25 60.45-7.7Q60.45-3.8 62.65-1.95L62.65-1.95 60.05 0.5Q59.05-0.1 58.2-1.25 57.35-2.4 56.9-3.6L56.9-3.6Q55.8-1.6 53.62-0.6 51.45 0.4 49.05 0.4L49.05 0.4ZM85.5 0.65Q83.59-0.65 82.8-2.55L82.8-2.55Q81.64-1.1 79.72-0.3 77.8 0.5 75.39 0.5L75.39 0.5Q71.3 0.5 68.82-1.75 66.34-4 66.34-7.7L66.34-7.7Q66.34-11.6 69.3-13.78 72.25-15.95 77.55-15.95L77.55-15.95 81.89-15.95 81.89-17Q81.89-19.85 80.87-21.03 79.84-22.2 77.39-22.2L77.39-22.2Q75.3-22.2 73.27-21.45 71.25-20.7 69.55-19.3L69.55-19.3 67.55-22.35Q69.34-24 72-24.95 74.64-25.9 77.44-25.9L77.44-25.9Q81.59-25.9 83.8-23.75 86-21.6 86-17.55L86-17.55 86-7.6Q86-3.65 88.14-1.85L88.14-1.85 85.5 0.65ZM75.44-3.2Q78.34-3.2 80.12-4.88 81.89-6.55 81.89-9.2L81.89-9.2 81.89-12.25 77.55-12.25Q73.8-12.25 72.12-11.18 70.44-10.1 70.44-7.75L70.44-7.75Q70.44-5.6 71.77-4.4 73.09-3.2 75.44-3.2L75.44-3.2ZM93.89-17.7Q93.89-19.45 93.42-20.85 92.94-22.25 91.64-23.4L91.64-23.4 94.29-25.9Q96.34-24.7 97.34-21.9L97.34-21.9Q100.59-25.8 105.49-25.8L105.49-25.8Q109.44-25.8 111.77-23.65 114.09-21.5 114.09-17.4L114.09-17.4 114.09 0.05 109.99 0.1 109.99-16.85Q109.99-19.3 108.94-20.7 107.89-22.1 105.24-22.1L105.24-22.1Q102.94-22.1 101.37-21.03 99.79-19.95 97.99-17.55L97.99-17.55 97.99 0.05 93.89 0.05 93.89-17.7ZM123.69-11.05Q123.84-7.95 125.37-5.55 126.89-3.15 130.99-3.15L130.99-3.15Q133.14-3.15 134.99-3.83 136.84-4.5 138.89-5.9L138.89-5.9 140.79-2.8Q138.94-1.3 136.24-0.38 133.54 0.55 130.79 0.55L130.79 0.55Q127.29 0.55 124.74-1.07 122.19-2.7 120.84-5.53 119.49-8.35 119.49-11.95L119.49-11.95Q119.49-15.55 120.82-18.75 122.14-21.95 124.72-23.9 127.29-25.85 130.84-25.85L130.84-25.85Q133.74-25.85 136.14-24.45 138.54-23.05 139.94-20.58 141.34-18.1 141.34-15.1L141.34-15.1Q141.34-13.85 141.14-11.05L141.14-11.05 123.69-11.05ZM123.89-14.75L137.29-14.75 137.29-15.25Q137.29-17.2 136.42-18.78 135.54-20.35 134.06-21.25 132.59-22.15 130.79-22.15L130.79-22.15Q128.24-22.15 126.37-20.25 124.49-18.35 123.89-14.75L123.89-14.75Z" fill="#ffa458" data-fill-palette-color="primary"></path><path d="M160.74-34.75L162.49-34.75 176.44-17.25 190.39-34.75 192.14-34.75 192.14 0.05 188.04 0.05 188.04-22.6Q188.04-23.35 188.19-25.2L188.19-25.2Q185.79-22.1 182.41-18.18 179.04-14.25 176.39-11.45L176.39-11.45 174.39-13.7Q168.34-20.6 166.99-22.15L166.99-22.15Q166.54-22.7 166.11-23.3 165.69-23.9 165.29-24.4L165.29-24.4 164.69-25.25Q164.84-23.85 164.84-22.6L164.84-22.6 164.84 0.05 160.74 0.05 160.74-34.75ZM209.34 0.4Q205.09 0.4 202.69-1.83 200.29-4.05 200.29-8.05L200.29-8.05 200.29-24.95 204.39-24.95 204.44-8.55Q204.44-6.05 205.61-4.67 206.79-3.3 209.49-3.3L209.49-3.3Q211.74-3.3 213.31-4.42 214.89-5.55 216.64-8L216.64-8 216.64-25 220.74-25 220.74-7.7Q220.74-3.8 222.94-1.95L222.94-1.95 220.34 0.5Q219.34-0.1 218.49-1.25 217.64-2.4 217.19-3.6L217.19-3.6Q216.09-1.6 213.91-0.6 211.74 0.4 209.34 0.4L209.34 0.4ZM228.78 0.05L228.78-36.35 232.78-36.35 232.78 0.05 228.78 0.05ZM240.58 0.05L240.58-36.35 244.58-36.35 244.58 0.05 240.58 0.05ZM254.73-11.05Q254.88-7.95 256.4-5.55 257.93-3.15 262.03-3.15L262.03-3.15Q264.18-3.15 266.03-3.83 267.88-4.5 269.93-5.9L269.93-5.9 271.83-2.8Q269.98-1.3 267.28-0.38 264.58 0.55 261.83 0.55L261.83 0.55Q258.33 0.55 255.78-1.07 253.23-2.7 251.88-5.53 250.53-8.35 250.53-11.95L250.53-11.95Q250.53-15.55 251.85-18.75 253.18-21.95 255.75-23.9 258.33-25.85 261.88-25.85L261.88-25.85Q264.78-25.85 267.18-24.45 269.58-23.05 270.98-20.58 272.38-18.1 272.38-15.1L272.38-15.1Q272.38-13.85 272.18-11.05L272.18-11.05 254.73-11.05ZM254.93-14.75L268.33-14.75 268.33-15.25Q268.33-17.2 267.45-18.78 266.58-20.35 265.1-21.25 263.63-22.15 261.83-22.15L261.83-22.15Q259.28-22.15 257.4-20.25 255.53-18.35 254.93-14.75L254.93-14.75ZM288.98-25.85Q290.43-25.85 292.43-25.35L292.43-25.35 292.33-21.4Q290.33-21.95 289.08-21.95L289.08-21.95Q286.73-21.95 285.43-20.85L285.43-20.85Q283.93-19.65 282.83-17.65L282.83-17.65 282.83 0.05 278.73 0.05 278.73-17.65Q278.73-21.55 276.63-23.35L276.63-23.35 279.38-25.9Q280.13-25.45 280.9-24.55 281.68-23.65 282.18-22.5L282.18-22.5Q283.28-23.9 284.43-24.65L284.43-24.65Q286.33-25.85 288.98-25.85L288.98-25.85Z" fill="#ffa458" data-fill-palette-color="primary"></path><path d="M310.38-29.7Q310.13-30.4 309.78-30.6 309.43-30.8 308.68-30.8L308.68-30.8 308.68-34.6Q308.88-34.65 309.28-34.65L309.28-34.65Q310.03-34.65 310.88-34.4 311.73-34.15 312.23-33.85L312.23-33.85Q312.88-33.45 313.35-32.77 313.83-32.1 314.08-31.35L314.08-31.35 321.73-7.2 322.03-5 322.38-7.2 330.93-34.35 334.63-34.35 343.23-7.2 343.58-5 343.88-7.2 352.48-34.35 356.58-34.35 345.38 0.05 341.68 0.05 332.78-27.35 323.88 0.05 320.18 0.05 310.38-29.7ZM364.52-11.05Q364.68-7.95 366.2-5.55 367.73-3.15 371.82-3.15L371.82-3.15Q373.98-3.15 375.82-3.83 377.68-4.5 379.73-5.9L379.73-5.9 381.62-2.8Q379.77-1.3 377.07-0.38 374.37 0.55 371.62 0.55L371.62 0.55Q368.12 0.55 365.57-1.07 363.02-2.7 361.68-5.53 360.32-8.35 360.32-11.95L360.32-11.95Q360.32-15.55 361.65-18.75 362.98-21.95 365.55-23.9 368.12-25.85 371.68-25.85L371.68-25.85Q374.57-25.85 376.98-24.45 379.37-23.05 380.77-20.58 382.18-18.1 382.18-15.1L382.18-15.1Q382.18-13.85 381.98-11.05L381.98-11.05 364.52-11.05ZM364.73-14.75L378.12-14.75 378.12-15.25Q378.12-17.2 377.25-18.78 376.37-20.35 374.9-21.25 373.43-22.15 371.62-22.15L371.62-22.15Q369.07-22.15 367.2-20.25 365.32-18.35 364.73-14.75L364.73-14.75ZM396.92 0.5Q394.42 0.5 392.17 0.2L392.17 0.2Q391.17 0.1 389.92-0.18 388.67-0.45 388.12-0.65L388.12-0.65 388.12-36.35 392.22-36.35 392.22-23.45Q393.62-24.65 395.35-25.25 397.07-25.85 398.92-25.85L398.92-25.85Q402.12-25.85 404.6-24.15 407.07-22.45 408.42-19.45 409.77-16.45 409.77-12.7L409.77-12.7Q409.77-9.05 408.42-6.08 407.07-3.1 404.2-1.3 401.32 0.5 396.92 0.5L396.92 0.5ZM396.87-3.25Q401.57-3.25 403.62-5.85 405.67-8.45 405.67-12.65L405.67-12.65Q405.67-15.6 404.75-17.75 403.82-19.9 402.25-21.03 400.67-22.15 398.77-22.15L398.77-22.15Q396.67-22.15 394.57-20.65L394.57-20.65Q392.47-19.1 392.22-16.4L392.22-16.4 392.22-3.55 394.17-3.35Q395.17-3.25 396.87-3.25L396.87-3.25Z" fill="#ffa458" data-fill-palette-color="primary"></path><path d="M442.47-34.55Q447.12-34.25 450.74-31.95 454.37-29.65 456.37-25.78 458.37-21.9 458.37-17.1L458.37-17.1Q458.37-12 456.14-8 453.92-4 449.97-1.75 446.02 0.5 440.97 0.5L440.97 0.5 438.47 0.5Q438.07 0.5 436.72 0.5 435.37 0.5 431.92 0.2L431.92 0.2 429.12-0.05 429.12-34.6 442.47-34.55ZM439.37-3.25Q446.57-3.25 450.42-6.8 454.27-10.35 454.27-16.95L454.27-16.95Q454.27-23.15 450.99-26.8 447.72-30.45 441.92-30.75L441.92-30.75 433.22-30.75 433.22-3.5Q436.62-3.25 439.37-3.25L439.37-3.25ZM467.27-11.05Q467.42-7.95 468.94-5.55 470.47-3.15 474.57-3.15L474.57-3.15Q476.72-3.15 478.57-3.83 480.42-4.5 482.47-5.9L482.47-5.9 484.36-2.8Q482.52-1.3 479.82-0.38 477.11 0.55 474.36 0.55L474.36 0.55Q470.87 0.55 468.32-1.07 465.77-2.7 464.42-5.53 463.07-8.35 463.07-11.95L463.07-11.95Q463.07-15.55 464.39-18.75 465.72-21.95 468.29-23.9 470.87-25.85 474.42-25.85L474.42-25.85Q477.32-25.85 479.72-24.45 482.11-23.05 483.52-20.58 484.92-18.1 484.92-15.1L484.92-15.1Q484.92-13.85 484.72-11.05L484.72-11.05 467.27-11.05ZM467.47-14.75L480.86-14.75 480.86-15.25Q480.86-17.2 479.99-18.78 479.11-20.35 477.64-21.25 476.17-22.15 474.36-22.15L474.36-22.15Q471.82-22.15 469.94-20.25 468.07-18.35 467.47-14.75L467.47-14.75ZM498.26 0.5Q492.76 0.5 488.56-3.7L488.56-3.7 490.91-6.45Q492.81-4.8 494.51-4.03 496.21-3.25 498.11-3.25L498.11-3.25Q500.56-3.25 501.99-4.33 503.41-5.4 503.41-7.3L503.41-7.3Q503.41-8.45 502.84-9.15 502.26-9.85 501.19-10.38 500.11-10.9 497.61-11.9L497.61-11.9Q494.86-13 493.34-13.83 491.81-14.65 490.91-15.93 490.01-17.2 490.01-19.1L490.01-19.1Q490.01-22.2 492.21-24.1 494.41-26 497.91-26L497.91-26Q499.96-26 502.04-25.33 504.11-24.65 505.31-23.6L505.31-23.6 503.56-20.65Q501.31-22.3 498.31-22.3L498.31-22.3Q496.41-22.3 495.29-21.53 494.16-20.75 494.16-19.4L494.16-19.4Q494.16-18 495.29-17.23 496.41-16.45 499.16-15.35L499.16-15.35Q502.26-14.1 504.01-13.1 505.76-12.1 506.66-10.78 507.56-9.45 507.56-7.45L507.56-7.45Q507.56-3.9 504.96-1.7 502.36 0.5 498.26 0.5L498.26 0.5ZM512.81 0L512.81-25.05 516.91-25 516.91 0.05 512.81 0ZM514.76-29.9Q513.76-29.9 512.96-30.7 512.16-31.5 512.16-32.5L512.16-32.5Q512.16-33.55 512.96-34.35 513.76-35.15 514.76-35.15L514.76-35.15Q515.81-35.15 516.64-34.35 517.46-33.55 517.46-32.5L517.46-32.5Q517.46-31.5 516.64-30.7 515.81-29.9 514.76-29.9L514.76-29.9ZM535.66 13.3Q523.91 13.3 523.91 3.3L523.91 3.3Q523.91 1.95 524.08 0.6 524.26-0.75 524.31-1.15L524.31-1.15Q523.36-2 522.73-3.28 522.11-4.55 522.11-5.9L522.11-5.9Q522.11-7.55 523.06-9.22 524.01-10.9 525.71-11.55L525.71-11.55Q526.41-11.85 527.76-11.85L527.76-11.85Q526.41-13.85 526.41-16.65L526.41-16.65Q526.41-19.45 527.73-21.58 529.06-23.7 531.28-24.85 533.51-26 536.11-26L536.11-26Q538.01-26 539.61-25.35L539.61-25.35 548.11-25.35 548.11-21.5 544.51-21.7Q545.91-19.5 545.91-16.75L545.91-16.75Q545.91-14 544.61-11.93 543.31-9.85 541.08-8.75 538.86-7.65 536.11-7.65L536.11-7.65Q533.41-7.65 531.26-8.65L531.26-8.65Q530.26-8.75 529.51-8.75L529.51-8.75Q528.61-8.75 528.06-8.6L528.06-8.6Q527.36-8.4 526.73-7.75 526.11-7.1 526.11-6.05L526.11-6.05Q526.11-4.8 527.08-4.33 528.06-3.85 529.91-3.85L529.91-3.85 533.31-3.95 537.31-4.05Q542.46-4.05 545.56-1.98 548.66 0.1 548.66 4.3L548.66 4.3Q548.66 9 544.86 11.15 541.06 13.3 535.66 13.3L535.66 13.3ZM536.21-11.35Q538.91-11.35 540.41-12.88 541.91-14.4 541.91-16.7L541.91-16.7Q541.91-19.15 540.26-20.73 538.61-22.3 536.06-22.3L536.06-22.3Q533.46-22.3 531.93-20.73 530.41-19.15 530.41-16.7L530.41-16.7Q530.41-14.2 532.03-12.78 533.66-11.35 536.21-11.35L536.21-11.35ZM535.71 9.65Q539.71 9.65 542.18 8.35 544.66 7.05 544.66 4.35L544.66 4.35Q544.66 1.45 542.13 0.55 539.61-0.35 536.16-0.35L536.16-0.35Q534.91-0.35 534.31-0.3L534.31-0.3Q533.76-0.3 532.76-0.28 531.76-0.25 529.81-0.25L529.81-0.25 528.66-0.3Q528.71-0.3 527.61-0.4L527.61-0.4 527.86 3.2Q528.01 5.35 528.46 6.6 528.91 7.85 530.58 8.75 532.26 9.65 535.71 9.65L535.71 9.65ZM553.96-17.7Q553.96-19.45 553.48-20.85 553.01-22.25 551.71-23.4L551.71-23.4 554.36-25.9Q556.41-24.7 557.41-21.9L557.41-21.9Q560.66-25.8 565.55-25.8L565.55-25.8Q569.51-25.8 571.83-23.65 574.16-21.5 574.16-17.4L574.16-17.4 574.16 0.05 570.06 0.1 570.06-16.85Q570.06-19.3 569.01-20.7 567.96-22.1 565.3-22.1L565.3-22.1Q563.01-22.1 561.43-21.03 559.86-19.95 558.05-17.55L558.05-17.55 558.05 0.05 553.96 0.05 553.96-17.7Z" fill="#ffa458" data-fill-palette-color="primary"></path></g></svg></g></svg></g></svg></g></svg></g><g transform="matrix(1,0,0,1,173.81343401293083,0)"><svg viewBox="0 0 49.87073197413824 47.495832999649984" height="47.495832999649984" width="49.87073197413824"><g><svg xmlns:x="http://ns.adobe.com/Extensibility/1.0/" xmlns:i="http://ns.adobe.com/AdobeIllustrator/10.0/" xmlns:graph="http://ns.adobe.com/Graphs/1.0/" xmlns="http://www.w3.org/2000/svg" xmlns:xlink="http://www.w3.org/1999/xlink" version="1.1" x="0" y="0" viewBox="0.48978257179260254 2.9000000953674316 98.91020965576172 94.19999694824219" enable-background="new 0 0 100 100" xml:space="preserve" height="47.495832999649984" width="49.87073197413824" class="icon-icon-0" data-fill-palette-color="accent" id="icon-0"><path d="M50 2.9c-4.1 0-8 0.8-11.8 2.4C22.5 11.7 15 29.8 21.5 45.5c4.8 11.6 16 19.1 28.5 19.1 4.1 0 8-0.8 11.8-2.4C77.5 55.7 85 37.7 78.5 21.9 73.7 10.4 62.5 2.9 50 2.9zM25.5 42.1c-1.9-5.4-1.9-11.2 0-16.7h6.6c-0.5 2.7-0.8 5.6-0.8 8.3 0 2.6 0.3 5.4 1 8.3H25.5zM36.3 33.7c0-2.9 0.3-5.7 0.9-8.3h10.3v16.7H37.4C36.7 39.3 36.3 36.4 36.3 33.7zM52.5 9.2c3.5 1.4 6.7 5.7 8.8 11.2h-8.8V9.2zM47.5 9.2v11.2h-8.8C40.8 14.9 44 10.6 47.5 9.2zM47.5 47.1v11.1c-3.3-1.5-6.4-5.9-8.5-11.1H47.5zM52.5 58.2V47.1H61C58.9 52.3 55.8 56.7 52.5 58.2zM52.5 42.1V25.4h10.3c0.6 2.7 0.9 5.5 0.9 8.3 0 2.7-0.4 5.5-1.1 8.3H52.5zM67.9 25.4h6.6c1.9 5.6 1.8 11.4 0 16.7h-6.8c0.7-2.9 1-5.8 1-8.3C68.7 31 68.4 28.1 67.9 25.4zM72.2 20.4h-5.6c-1.1-3.6-2.7-6.9-4.7-9.6C66.1 13 69.7 16.3 72.2 20.4zM38.1 10.8c-1.9 2.7-3.5 6-4.7 9.6h-5.5C30.3 16.3 33.8 13 38.1 10.8zM27.8 47.1h5.9c1.3 3.7 3 7.2 5.2 10.1C34.4 55 30.5 51.5 27.8 47.1zM61.1 57.1c2.1-2.9 3.9-6.4 5.1-10h5.9C69.6 51.3 65.8 54.9 61.1 57.1zM9.7 97.1c2.7 0 5.3-1.2 7.1-3.3 0.8-1 1.4-2.1 1.8-3.4h22.6c1.1 3.9 4.6 6.7 8.8 6.7 4.2 0 7.7-2.8 8.8-6.7h22.6c1.1 3.9 4.6 6.7 8.8 6.7 5.1 0 9.2-4.1 9.2-9.2 0-5.1-4.1-9.2-9.2-9.2-4.2 0-7.7 2.8-8.8 6.7H58.8c-0.9-3.1-3.3-5.5-6.3-6.3v-6.9c0-1.4-1.1-2.5-2.5-2.5s-2.5 1.1-2.5 2.5v6.9c-3.1 0.9-5.5 3.3-6.3 6.3H18.5c-0.9-3.3-3.7-5.9-7-6.5-3.3-0.6-6.7 0.6-8.9 3.2-1.8 2.1-2.5 4.9-1.9 7.6 0.7 3.6 3.6 6.6 7.2 7.2C8.5 97.1 9.1 97.1 9.7 97.1zM90.3 83.7c2.3 0 4.2 1.9 4.2 4.2 0 2.3-1.9 4.2-4.2 4.2-2.2 0-4-1.7-4.2-3.9 0-0.1 0-0.2 0-0.3s0-0.2 0-0.3C86.3 85.5 88.1 83.7 90.3 83.7zM50 83.7c2.3 0 4.2 1.9 4.2 4.2 0 2.3-1.9 4.2-4.2 4.2s-4.2-1.9-4.2-4.2C45.8 85.6 47.7 83.7 50 83.7zM5.6 88.8c-0.2-1.3 0.1-2.5 0.9-3.5 0.8-1 2-1.5 3.2-1.5 0.3 0 0.6 0 0.8 0.1 1.6 0.3 3 1.6 3.3 3.3 0.2 1.3-0.1 2.5-0.9 3.5-1 1.2-2.5 1.7-4.1 1.4C7.2 91.7 5.9 90.4 5.6 88.8z" fill="#ffa458" data-fill-palette-color="accent"></path></svg></g></svg></g><g></g></svg></g><defs></defs></svg><rect width="395.52" height="100.68582556337351" fill="none" stroke="none" visibility="hidden"></rect></g></svg></g></svg>